# xmcd
# Track frame offsets:
# 150
# 15910
# 30132
# 42868
# 58157
# 70942
# 85006
# 98521
# 112452
# 125732
# 137780
# 151758
# 163940
# 176775
# 190936
# 203321
# 214410
# 228397
# 241005
# 256427
#
# Disc length: 3597 seconds
# Revision: 2
# Processed by: cddbd v1.5.2PL0 Copyright (c) Steve Scherf et al.
# Submitted via: VisiTrax 2.11.2.271 - For more info visit www.synapsa.com
#
DISCID=0c0e0b14
DTITLE=Various Artist - Midnight Special
DYEAR=1900
DGENRE=Blues
TTITLE0=Tampa Red - My Daddy Rocks Me
TTITLE1=Son House - My Black Mama
TTITLE2=Cripple Clarence - Pine Tops Boogie Woogie
TTITLE3=Muddy Waters - Country Blues
TTITLE4=Barbecue Bob - Chocolate To The Bone
TTITLE5=Bessie Smith - Young Woman's Blues
TTITLE6=Blind Willie McTell - Scary Day Blues
TTITLE7=Hamburnwillie Newburn - Roll and Tumble Blues
TTITLE8=Robert Johnston - I Believe I'll Dust My Broom
TTITLE9=Big Bill Broonzy - Midnight Steppers
TTITLE10=Leadbelly - Midnight Special
TTITLE11=Chippie Hill - Trouble In Mind
TTITLE12=Mississippi John Hurt - Can't Be Satisfied
TTITLE13=Pine Top Smith - I'm Sober Now
TTITLE14=Pinetop and Lindberg - East Chicago Blues
TTITLE15=Blind Boy Fuller - She's A Truckin' Little Baby
TTITLE16=Johnny Temple - Lead Pencil Blues
TTITLE17=Black Ivory King - The Flying Crow
TTITLE18=Bessie Tucker - Fort Worth and Denver
TTITLE19=Blind Blake - Rope Stretching Blues
EXTD=ID3G: 0
EXTT0=
EXTT1=
EXTT2=
EXTT3=
EXTT4=
EXTT5=
EXTT6=
EXTT7=
EXTT8=
EXTT9=
EXTT10=
EXTT11=
EXTT12=
EXTT13=
EXTT14=
EXTT15=
EXTT16=
EXTT17=
EXTT18=
EXTT19=
PLAYORDER=
